<svg width="19" height="18" viewBox="0 0 19 18" fill="none" xmlns="http://www.w3.org/2000/svg">
<path d="M3.87793 9.70312C4.75293 10.5781 5.81543 11.0156 7.06543 11.0156C8.31543 11.0156 9.37793 10.5781 10.2529 9.70312C11.1279 8.82812 11.5654 7.76562 11.5654 6.51562C11.5654 5.26562 11.1279 4.20313 10.2529 3.32812C9.37793 2.45312 8.31543 2.01562 7.06543 2.01562C5.81543 2.01562 4.75293 2.45312 3.87793 3.32812C3.00293 4.20313 2.56543 5.26562 2.56543 6.51562C2.56543 7.76562 3.00293 8.82812 3.87793 9.70312ZM13.0654 11.0156L18.0342 15.9844L16.5342 17.4844L11.5654 12.5156V11.7188L11.2842 11.4375C10.0967 12.4688 8.69043 12.9844 7.06543 12.9844C5.25293 12.9844 3.70605 12.3594 2.4248 11.1094C1.1748 9.85938 0.549805 8.32812 0.549805 6.51562C0.549805 4.70312 1.1748 3.17188 2.4248 1.92188C3.70605 0.640625 5.25293 0 7.06543 0C8.87793 0 10.4092 0.640625 11.6592 1.92188C12.9092 3.17188 13.5342 4.70312 13.5342 6.51562C13.5342 7.17188 13.3779 7.92188 13.0654 8.76562C12.7529 9.57812 12.3936 10.2344 11.9873 10.7344L12.2686 11.0156H13.0654Z" fill="#01080E"/>
</svg>
